<mxfile host="app.diagrams.net" modified="2021-04-20T03:13:33.026Z" agent="5.0 (Macintosh; Intel Mac OS X 10_14_6) AppleWebKit/537.36 (KHTML, like Gecko) Chrome/90.0.4430.72 Safari/537.36" etag="I_9N4mSpBEl93stXHYwt" version="14.6.2" type="github">
  <diagram id="mcCv0GpQHg0dAtVWoG17" name="Page-3">
    <mxGraphModel dx="946" dy="515" grid="1" gridSize="10" guides="1" tooltips="1" connect="1" arrows="1" fold="1" page="1" pageScale="1" pageWidth="1169" pageHeight="1654" math="0" shadow="0">
      <root>
        <mxCell id="mdPBTtwXBfCL-VPs6jp8-0" />
        <mxCell id="mdPBTtwXBfCL-VPs6jp8-1" parent="mdPBTtwXBfCL-VPs6jp8-0" />
        <mxCell id="gPFRPEWvYXiCv_8Pw6VX-2" value="" style="shape=cylinder3;whiteSpace=wrap;html=1;boundedLbl=1;backgroundOutline=1;size=15;fillColor=#d5e8d4;strokeColor=#82b366;" parent="mdPBTtwXBfCL-VPs6jp8-1" vertex="1">
          <mxGeometry x="60" y="240" width="50" height="70" as="geometry" />
        </mxCell>
        <mxCell id="gPFRPEWvYXiCv_8Pw6VX-4" value="" style="shape=cylinder3;whiteSpace=wrap;html=1;boundedLbl=1;backgroundOutline=1;size=15;fillColor=#d5e8d4;strokeColor=#82b366;" parent="mdPBTtwXBfCL-VPs6jp8-1" vertex="1">
          <mxGeometry x="120" y="240" width="50" height="70" as="geometry" />
        </mxCell>
        <mxCell id="gPFRPEWvYXiCv_8Pw6VX-5" value="" style="shape=cylinder3;whiteSpace=wrap;html=1;boundedLbl=1;backgroundOutline=1;size=15;fillColor=#d5e8d4;strokeColor=#82b366;" parent="mdPBTtwXBfCL-VPs6jp8-1" vertex="1">
          <mxGeometry x="55" y="290" width="50" height="70" as="geometry" />
        </mxCell>
        <mxCell id="gPFRPEWvYXiCv_8Pw6VX-6" value="基础信息" style="text;html=1;resizable=0;autosize=1;align=center;verticalAlign=middle;points=[];fillColor=none;strokeColor=none;rounded=0;" parent="mdPBTtwXBfCL-VPs6jp8-1" vertex="1">
          <mxGeometry x="55" y="270" width="60" height="20" as="geometry" />
        </mxCell>
        <mxCell id="gPFRPEWvYXiCv_8Pw6VX-7" value="" style="shape=cylinder3;whiteSpace=wrap;html=1;boundedLbl=1;backgroundOutline=1;size=15;fillColor=#d5e8d4;strokeColor=#82b366;" parent="mdPBTtwXBfCL-VPs6jp8-1" vertex="1">
          <mxGeometry x="115" y="290" width="50" height="70" as="geometry" />
        </mxCell>
        <mxCell id="gPFRPEWvYXiCv_8Pw6VX-8" value="位置信息" style="text;html=1;resizable=0;autosize=1;align=center;verticalAlign=middle;points=[];fillColor=none;strokeColor=none;rounded=0;" parent="mdPBTtwXBfCL-VPs6jp8-1" vertex="1">
          <mxGeometry x="115" y="270" width="60" height="20" as="geometry" />
        </mxCell>
        <mxCell id="gPFRPEWvYXiCv_8Pw6VX-9" value="行为信息" style="text;html=1;resizable=0;autosize=1;align=center;verticalAlign=middle;points=[];fillColor=none;strokeColor=none;rounded=0;" parent="mdPBTtwXBfCL-VPs6jp8-1" vertex="1">
          <mxGeometry x="50" y="320" width="60" height="20" as="geometry" />
        </mxCell>
        <mxCell id="gPFRPEWvYXiCv_8Pw6VX-10" value="&amp;nbsp; &amp;nbsp;社交网络" style="text;html=1;resizable=0;autosize=1;align=center;verticalAlign=middle;points=[];fillColor=none;strokeColor=none;rounded=0;" parent="mdPBTtwXBfCL-VPs6jp8-1" vertex="1">
          <mxGeometry x="100" y="320" width="70" height="20" as="geometry" />
        </mxCell>
        <mxCell id="gPFRPEWvYXiCv_8Pw6VX-11" value="&lt;font style=&quot;font-size: 17px&quot;&gt;&lt;i&gt;&lt;b&gt;海量用户信息&lt;/b&gt;&lt;/i&gt;&lt;/font&gt;" style="text;html=1;resizable=0;autosize=1;align=center;verticalAlign=middle;points=[];fillColor=none;strokeColor=none;rounded=0;" parent="mdPBTtwXBfCL-VPs6jp8-1" vertex="1">
          <mxGeometry x="50" y="370" width="120" height="20" as="geometry" />
        </mxCell>
        <mxCell id="gPFRPEWvYXiCv_8Pw6VX-12" value="" style="endArrow=classic;html=1;strokeWidth=3;" parent="mdPBTtwXBfCL-VPs6jp8-1" edge="1">
          <mxGeometry width="50" height="50" relative="1" as="geometry">
            <mxPoint x="175" y="300" as="sourcePoint" />
            <mxPoint x="290" y="300" as="targetPoint" />
          </mxGeometry>
        </mxCell>
        <mxCell id="gPFRPEWvYXiCv_8Pw6VX-13" value="&lt;font style=&quot;font-size: 14px&quot;&gt;&lt;b&gt;模型架构&lt;/b&gt;&lt;/font&gt;" style="text;html=1;resizable=0;autosize=1;align=center;verticalAlign=middle;points=[];fillColor=none;strokeColor=none;rounded=0;" parent="mdPBTtwXBfCL-VPs6jp8-1" vertex="1">
          <mxGeometry x="195" y="270" width="70" height="20" as="geometry" />
        </mxCell>
        <mxCell id="gPFRPEWvYXiCv_8Pw6VX-14" value="" style="aspect=fixed;perimeter=ellipsePerimeter;html=1;align=center;shadow=0;dashed=0;spacingTop=3;image;image=img/lib/active_directory/users.svg;" parent="mdPBTtwXBfCL-VPs6jp8-1" vertex="1">
          <mxGeometry x="300" y="264.85" width="49.6" height="75.15" as="geometry" />
        </mxCell>
        <mxCell id="gPFRPEWvYXiCv_8Pw6VX-15" value="" style="aspect=fixed;perimeter=ellipsePerimeter;html=1;align=center;shadow=0;dashed=0;spacingTop=3;image;image=img/lib/active_directory/users.svg;" parent="mdPBTtwXBfCL-VPs6jp8-1" vertex="1">
          <mxGeometry x="340" y="270" width="49.6" height="75.15" as="geometry" />
        </mxCell>
        <mxCell id="gPFRPEWvYXiCv_8Pw6VX-16" value="&lt;font style=&quot;font-size: 14px&quot;&gt;&lt;b&gt;得到目标用户人群&lt;/b&gt;&lt;/font&gt;" style="text;html=1;resizable=0;autosize=1;align=center;verticalAlign=middle;points=[];fillColor=none;strokeColor=none;rounded=0;" parent="mdPBTtwXBfCL-VPs6jp8-1" vertex="1">
          <mxGeometry x="165" y="310" width="130" height="20" as="geometry" />
        </mxCell>
        <mxCell id="gPFRPEWvYXiCv_8Pw6VX-17" value="" style="endArrow=classic;html=1;strokeWidth=3;" parent="mdPBTtwXBfCL-VPs6jp8-1" edge="1">
          <mxGeometry width="50" height="50" relative="1" as="geometry">
            <mxPoint x="400" y="301.93" as="sourcePoint" />
            <mxPoint x="460" y="302" as="targetPoint" />
          </mxGeometry>
        </mxCell>
        <mxCell id="gPFRPEWvYXiCv_8Pw6VX-18" value="&lt;font style=&quot;font-size: 14px&quot;&gt;信用预评估&lt;/font&gt;" style="shape=parallelogram;perimeter=parallelogramPerimeter;whiteSpace=wrap;html=1;fixedSize=1;fillColor=#d5e8d4;strokeColor=#82b366;" parent="mdPBTtwXBfCL-VPs6jp8-1" vertex="1">
          <mxGeometry x="460" y="272.43" width="120" height="60" as="geometry" />
        </mxCell>
        <mxCell id="gPFRPEWvYXiCv_8Pw6VX-20" value="" style="endArrow=classic;html=1;strokeWidth=3;" parent="mdPBTtwXBfCL-VPs6jp8-1" edge="1">
          <mxGeometry width="50" height="50" relative="1" as="geometry">
            <mxPoint x="620" y="301.93000000000006" as="sourcePoint" />
            <mxPoint x="660" y="302" as="targetPoint" />
            <Array as="points">
              <mxPoint x="590" y="302" />
              <mxPoint x="580" y="302" />
            </Array>
          </mxGeometry>
        </mxCell>
        <mxCell id="gPFRPEWvYXiCv_8Pw6VX-32" style="edgeStyle=orthogonalEdgeStyle;rounded=0;orthogonalLoop=1;jettySize=auto;html=1;strokeWidth=3;" parent="mdPBTtwXBfCL-VPs6jp8-1" source="gPFRPEWvYXiCv_8Pw6VX-22" edge="1">
          <mxGeometry relative="1" as="geometry">
            <mxPoint x="694.8" y="440" as="targetPoint" />
          </mxGeometry>
        </mxCell>
        <mxCell id="gPFRPEWvYXiCv_8Pw6VX-22" value="" style="aspect=fixed;perimeter=ellipsePerimeter;html=1;align=center;shadow=0;dashed=0;spacingTop=3;image;image=img/lib/active_directory/users.svg;" parent="mdPBTtwXBfCL-VPs6jp8-1" vertex="1">
          <mxGeometry x="670" y="264.85" width="49.6" height="75.15" as="geometry" />
        </mxCell>
        <mxCell id="gPFRPEWvYXiCv_8Pw6VX-23" value="&lt;b&gt;&lt;font style=&quot;font-size: 15px&quot;&gt;筛选工作&lt;/font&gt;&lt;/b&gt;" style="text;html=1;resizable=0;autosize=1;align=center;verticalAlign=middle;points=[];fillColor=none;strokeColor=none;rounded=0;" parent="mdPBTtwXBfCL-VPs6jp8-1" vertex="1">
          <mxGeometry x="580" y="272.43" width="80" height="20" as="geometry" />
        </mxCell>
        <mxCell id="gPFRPEWvYXiCv_8Pw6VX-26" value="" style="shape=cylinder3;whiteSpace=wrap;html=1;boundedLbl=1;backgroundOutline=1;size=15;fillColor=#d5e8d4;strokeColor=#82b366;" parent="mdPBTtwXBfCL-VPs6jp8-1" vertex="1">
          <mxGeometry x="380" y="440" width="80" height="90" as="geometry" />
        </mxCell>
        <mxCell id="gPFRPEWvYXiCv_8Pw6VX-27" value="" style="shape=cylinder3;whiteSpace=wrap;html=1;boundedLbl=1;backgroundOutline=1;size=15;fillColor=#ffe6cc;strokeColor=#d79b00;" parent="mdPBTtwXBfCL-VPs6jp8-1" vertex="1">
          <mxGeometry x="380" y="500" width="80.4" height="90" as="geometry" />
        </mxCell>
        <mxCell id="gPFRPEWvYXiCv_8Pw6VX-29" value="" style="endArrow=classic;html=1;strokeWidth=3;" parent="mdPBTtwXBfCL-VPs6jp8-1" edge="1">
          <mxGeometry width="50" height="50" relative="1" as="geometry">
            <mxPoint x="230" y="332.43" as="sourcePoint" />
            <mxPoint x="360" y="450" as="targetPoint" />
          </mxGeometry>
        </mxCell>
        <mxCell id="gPFRPEWvYXiCv_8Pw6VX-30" value="&lt;font style=&quot;font-size: 16px&quot;&gt;&lt;b&gt;用户特征信息&lt;/b&gt;&lt;/font&gt;" style="text;html=1;resizable=0;autosize=1;align=center;verticalAlign=middle;points=[];fillColor=none;strokeColor=none;rounded=0;" parent="mdPBTtwXBfCL-VPs6jp8-1" vertex="1">
          <mxGeometry x="295" y="370" width="110" height="20" as="geometry" />
        </mxCell>
        <mxCell id="gPFRPEWvYXiCv_8Pw6VX-31" value="" style="endArrow=classic;html=1;strokeWidth=3;" parent="mdPBTtwXBfCL-VPs6jp8-1" edge="1">
          <mxGeometry width="50" height="50" relative="1" as="geometry">
            <mxPoint x="405" y="370" as="sourcePoint" />
            <mxPoint x="455" y="320" as="targetPoint" />
          </mxGeometry>
        </mxCell>
        <mxCell id="gPFRPEWvYXiCv_8Pw6VX-33" value="&lt;font style=&quot;font-size: 15px&quot;&gt;&lt;b&gt;&lt;i&gt;Kmeans半监督算法&lt;/i&gt;&lt;/b&gt;&lt;/font&gt;" style="text;html=1;resizable=0;autosize=1;align=center;verticalAlign=middle;points=[];fillColor=none;strokeColor=none;rounded=0;" parent="mdPBTtwXBfCL-VPs6jp8-1" vertex="1">
          <mxGeometry x="700" y="370" width="150" height="20" as="geometry" />
        </mxCell>
        <mxCell id="gPFRPEWvYXiCv_8Pw6VX-34" value="" style="shape=curlyBracket;whiteSpace=wrap;html=1;rounded=1;flipH=1;rotation=-90;" parent="mdPBTtwXBfCL-VPs6jp8-1" vertex="1">
          <mxGeometry x="682.4" y="332.42999999999995" width="24.8" height="240" as="geometry" />
        </mxCell>
        <mxCell id="gPFRPEWvYXiCv_8Pw6VX-36" value="" style="shape=actor;whiteSpace=wrap;html=1;gradientColor=#b3b3b3;fillColor=#f5f5f5;strokeColor=#666666;" parent="mdPBTtwXBfCL-VPs6jp8-1" vertex="1">
          <mxGeometry x="565" y="470" width="40" height="60" as="geometry" />
        </mxCell>
        <mxCell id="gPFRPEWvYXiCv_8Pw6VX-37" value="" style="shape=actor;whiteSpace=wrap;html=1;gradientColor=#b3b3b3;fillColor=#f5f5f5;strokeColor=#666666;" parent="mdPBTtwXBfCL-VPs6jp8-1" vertex="1">
          <mxGeometry x="642.4" y="470" width="40" height="60" as="geometry" />
        </mxCell>
        <mxCell id="gPFRPEWvYXiCv_8Pw6VX-38" value="" style="shape=actor;whiteSpace=wrap;html=1;gradientColor=#b3b3b3;fillColor=#f5f5f5;strokeColor=#666666;" parent="mdPBTtwXBfCL-VPs6jp8-1" vertex="1">
          <mxGeometry x="719.6" y="470" width="40" height="60" as="geometry" />
        </mxCell>
        <mxCell id="gPFRPEWvYXiCv_8Pw6VX-39" value="" style="shape=actor;whiteSpace=wrap;html=1;gradientColor=#b3b3b3;fillColor=#f5f5f5;strokeColor=#666666;" parent="mdPBTtwXBfCL-VPs6jp8-1" vertex="1">
          <mxGeometry x="790" y="470" width="40" height="60" as="geometry" />
        </mxCell>
        <mxCell id="gPFRPEWvYXiCv_8Pw6VX-42" value="&lt;p class=&quot;MsoNormal&quot; style=&quot;margin: 0pt 0pt 0.0001pt ; text-align: justify ; font-family: &amp;#34;calibri&amp;#34; ; font-size: 10.5pt&quot;&gt;&lt;b&gt;&lt;span style=&quot;font-size: 10.5pt&quot;&gt;&lt;font face=&quot;宋体&quot;&gt;新婚购房&lt;/font&gt;&lt;/span&gt;&lt;/b&gt;&lt;/p&gt;&lt;p class=&quot;MsoNormal&quot; style=&quot;margin: 0pt 0pt 0.0001pt ; text-align: justify ; font-family: &amp;#34;calibri&amp;#34; ; font-size: 10.5pt&quot;&gt;&lt;b&gt;&lt;span style=&quot;font-size: 10.5pt&quot;&gt;&lt;font face=&quot;宋体&quot;&gt;&amp;nbsp; &amp;nbsp;人群&lt;/font&gt;&lt;/span&gt;&lt;/b&gt;&lt;/p&gt;" style="text;html=1;resizable=0;autosize=1;align=center;verticalAlign=middle;points=[];fillColor=none;strokeColor=none;rounded=0;" parent="mdPBTtwXBfCL-VPs6jp8-1" vertex="1">
          <mxGeometry x="550" y="547.43" width="70" height="30" as="geometry" />
        </mxCell>
        <mxCell id="gPFRPEWvYXiCv_8Pw6VX-43" value="&lt;p class=&quot;MsoNormal&quot; style=&quot;margin: 0pt 0pt 0.0001pt ; text-align: justify ; font-family: &amp;#34;calibri&amp;#34; ; font-size: 10.5pt&quot;&gt;&lt;b&gt;&lt;span style=&quot;font-size: 10.5pt&quot;&gt;&lt;font face=&quot;宋体&quot;&gt;改善购房&lt;/font&gt;&lt;/span&gt;&lt;/b&gt;&lt;/p&gt;&lt;p class=&quot;MsoNormal&quot; style=&quot;margin: 0pt 0pt 0.0001pt ; text-align: justify ; font-family: &amp;#34;calibri&amp;#34; ; font-size: 10.5pt&quot;&gt;&lt;b&gt;&lt;span style=&quot;font-size: 10.5pt&quot;&gt;&lt;font face=&quot;宋体&quot;&gt;&amp;nbsp; &amp;nbsp;人群&lt;/font&gt;&lt;/span&gt;&lt;/b&gt;&lt;/p&gt;" style="text;html=1;resizable=0;autosize=1;align=center;verticalAlign=middle;points=[];fillColor=none;strokeColor=none;rounded=0;" parent="mdPBTtwXBfCL-VPs6jp8-1" vertex="1">
          <mxGeometry x="627.4" y="547.4300000000001" width="70" height="30" as="geometry" />
        </mxCell>
        <mxCell id="gPFRPEWvYXiCv_8Pw6VX-44" value="&lt;p class=&quot;MsoNormal&quot; style=&quot;margin: 0pt 0pt 0.0001pt ; text-align: justify ; font-size: 10.5pt&quot;&gt;&lt;font face=&quot;宋体&quot;&gt;&lt;b&gt;教育需求&lt;/b&gt;&lt;/font&gt;&lt;/p&gt;&lt;p class=&quot;MsoNormal&quot; style=&quot;margin: 0pt 0pt 0.0001pt ; text-align: justify ; font-family: &amp;#34;calibri&amp;#34; ; font-size: 10.5pt&quot;&gt;&lt;b&gt;&lt;span style=&quot;font-size: 10.5pt&quot;&gt;&lt;font face=&quot;宋体&quot;&gt;&amp;nbsp; &amp;nbsp;人群&lt;/font&gt;&lt;/span&gt;&lt;/b&gt;&lt;/p&gt;" style="text;html=1;resizable=0;autosize=1;align=center;verticalAlign=middle;points=[];fillColor=none;strokeColor=none;rounded=0;" parent="mdPBTtwXBfCL-VPs6jp8-1" vertex="1">
          <mxGeometry x="704.6" y="547.4300000000001" width="70" height="30" as="geometry" />
        </mxCell>
        <mxCell id="gPFRPEWvYXiCv_8Pw6VX-45" value="&lt;p class=&quot;MsoNormal&quot; style=&quot;margin: 0pt 0pt 0.0001pt ; text-align: justify ; font-size: 10.5pt&quot;&gt;&lt;font face=&quot;宋体&quot;&gt;&lt;b&gt;投资购房&lt;/b&gt;&lt;/font&gt;&lt;/p&gt;&lt;p class=&quot;MsoNormal&quot; style=&quot;margin: 0pt 0pt 0.0001pt ; text-align: justify ; font-family: &amp;#34;calibri&amp;#34; ; font-size: 10.5pt&quot;&gt;&lt;b&gt;&lt;span style=&quot;font-size: 10.5pt&quot;&gt;&lt;font face=&quot;宋体&quot;&gt;&amp;nbsp; &amp;nbsp;人群&lt;/font&gt;&lt;/span&gt;&lt;/b&gt;&lt;/p&gt;" style="text;html=1;resizable=0;autosize=1;align=center;verticalAlign=middle;points=[];fillColor=none;strokeColor=none;rounded=0;" parent="mdPBTtwXBfCL-VPs6jp8-1" vertex="1">
          <mxGeometry x="780" y="547.4300000000001" width="70" height="30" as="geometry" />
        </mxCell>
        <mxCell id="gPFRPEWvYXiCv_8Pw6VX-47" value="" style="endArrow=classic;html=1;strokeWidth=3;" parent="mdPBTtwXBfCL-VPs6jp8-1" edge="1">
          <mxGeometry width="50" height="50" relative="1" as="geometry">
            <mxPoint x="550" y="510" as="sourcePoint" />
            <mxPoint x="470" y="510" as="targetPoint" />
          </mxGeometry>
        </mxCell>
        <mxCell id="gPFRPEWvYXiCv_8Pw6VX-48" value="&lt;b&gt;&lt;font style=&quot;font-size: 14px&quot;&gt;增加特征输入&lt;/font&gt;&lt;/b&gt;" style="text;html=1;resizable=0;autosize=1;align=center;verticalAlign=middle;points=[];fillColor=none;strokeColor=none;rounded=0;" parent="mdPBTtwXBfCL-VPs6jp8-1" vertex="1">
          <mxGeometry x="465" y="480" width="100" height="20" as="geometry" />
        </mxCell>
        <mxCell id="gPFRPEWvYXiCv_8Pw6VX-49" value="&lt;font style=&quot;font-size: 14px&quot;&gt;精准推荐&lt;/font&gt;" style="text;html=1;resizable=0;autosize=1;align=center;verticalAlign=middle;points=[];fillColor=none;strokeColor=none;rounded=0;" parent="mdPBTtwXBfCL-VPs6jp8-1" vertex="1">
          <mxGeometry x="385" y="547.4300000000001" width="70" height="20" as="geometry" />
        </mxCell>
        <mxCell id="gPFRPEWvYXiCv_8Pw6VX-50" value="&lt;font style=&quot;font-size: 15px&quot;&gt;精准营销&lt;/font&gt;" style="text;html=1;resizable=0;autosize=1;align=center;verticalAlign=middle;points=[];fillColor=none;strokeColor=none;rounded=0;" parent="mdPBTtwXBfCL-VPs6jp8-1" vertex="1">
          <mxGeometry x="380" y="475" width="80" height="20" as="geometry" />
        </mxCell>
        <mxCell id="gPFRPEWvYXiCv_8Pw6VX-52" value="&lt;p class=&quot;MsoNormal&quot; style=&quot;margin: 0pt 0pt 0.0001pt ; text-align: justify ; font-family: &amp;#34;times new roman&amp;#34;&quot;&gt;&lt;b&gt;&lt;font face=&quot;宋体&quot; style=&quot;font-size: 16px&quot;&gt;智能信贷匹配&lt;/font&gt;&lt;/b&gt;&lt;/p&gt;" style="text;html=1;resizable=0;autosize=1;align=center;verticalAlign=middle;points=[];fillColor=none;strokeColor=none;rounded=0;" parent="mdPBTtwXBfCL-VPs6jp8-1" vertex="1">
          <mxGeometry x="365" y="600" width="110" height="20" as="geometry" />
        </mxCell>
        <mxCell id="CCa46CVElnrkqT-zNEpT-0" value="" style="endArrow=classic;html=1;strokeWidth=3;" edge="1" parent="mdPBTtwXBfCL-VPs6jp8-1">
          <mxGeometry width="50" height="50" relative="1" as="geometry">
            <mxPoint x="360" y="510" as="sourcePoint" />
            <mxPoint x="290" y="510" as="targetPoint" />
          </mxGeometry>
        </mxCell>
        <mxCell id="CCa46CVElnrkqT-zNEpT-2" value="&lt;font style=&quot;font-size: 16px&quot;&gt;贷后监管&lt;/font&gt;" style="shape=parallelogram;perimeter=parallelogramPerimeter;whiteSpace=wrap;html=1;fixedSize=1;fillColor=#d5e8d4;strokeColor=#82b366;" vertex="1" parent="mdPBTtwXBfCL-VPs6jp8-1">
          <mxGeometry x="170" y="480" width="120" height="60" as="geometry" />
        </mxCell>
        <mxCell id="CCa46CVElnrkqT-zNEpT-3" value="" style="endArrow=classic;html=1;strokeWidth=3;" edge="1" parent="mdPBTtwXBfCL-VPs6jp8-1">
          <mxGeometry width="50" height="50" relative="1" as="geometry">
            <mxPoint x="300" y="410" as="sourcePoint" />
            <mxPoint x="255" y="470" as="targetPoint" />
          </mxGeometry>
        </mxCell>
      </root>
    </mxGraphModel>
  </diagram>
</mxfile>
